<?xml version="1.0" encoding="UTF-8" standalone="no"?><!DOCTYPE svg PUBLIC "-//W3C//DTD SVG 1.1//EN" "http://www.w3.org/Graphics/SVG/1.1/DTD/svg11.dtd"><svg width="100%" height="100%" viewBox="0 0 437 355" version="1.1" xmlns="http://www.w3.org/2000/svg" xmlns:xlink="http://www.w3.org/1999/xlink" xml:space="preserve" style="fill-rule:evenodd;clip-rule:evenodd;stroke-linejoin:round;stroke-miterlimit:1.41421;"><g><path d="M436.44,66.93l-95.881,110.487l-115.244,0l95.607,-110.487l115.518,0Z" style="fill:#175846;fill-rule:nonzero;"/><path d="M225.315,177.417l95.88,110.487l115.245,0l-95.607,-110.487l-115.518,0Z" style="fill:#074737;fill-rule:nonzero;"/></g><path d="M308.637,325.428c3.151,5.36 3.151,20.985 0,26.345c-19.029,4.631 -24.735,1.014 -49.65,1.014c-24.582,0 -50.157,3.688 -68.903,-1.014c-3.424,-5.634 -2.735,-20.57 0,-26.345c3.455,-2.625 10.082,-2.077 16.213,-2.026c-4.509,-14.389 -15.432,-25.535 -24.319,-37.491c-17.418,-23.457 -34.289,-45.344 -52.69,-68.903c-8.511,-10.892 -16.11,-28.635 -34.451,-26.344c-2.513,42.364 0.213,88.276 1.013,130.712c9.505,2.989 26.69,-1.702 33.438,4.053c3.03,6.505 3.405,22.19 -1.013,27.359c-20.934,1.641 -62.093,-0.254 -92.207,1.013c-10.204,0.425 -25.838,2.412 -30.398,0c-8.461,-4.469 -5.979,-21.491 -2.027,-29.385c7.67,-3.476 20.752,-1.541 31.412,-2.027c5.451,-90.981 3.08,-194.355 1.013,-287.768c-7.194,-4.63 -24.38,0.73 -31.412,-4.053c-4.772,-8.015 -6.555,-28.686 6.08,-29.385c13.335,-0.739 37.825,2.027 56.743,2.027c23.529,0 45.891,-4.013 61.81,0c4.479,5.694 4.813,23.984 -1.013,28.371c-8.441,2.706 -22.88,-0.588 -31.412,2.027c-2.938,39.406 -2.421,70.098 -3.039,114.499l1.702,15.392c18.341,2.29 25.94,-15.452 34.451,-26.345c18.402,-23.559 35.272,-45.445 52.69,-68.902c8.886,-11.957 19.81,-23.102 24.318,-37.491c-6.13,0.05 -12.757,0.598 -16.212,-2.027c-2.736,-5.775 -3.424,-20.711 0,-26.345c18.746,-4.702 44.321,-1.013 68.903,-1.013c24.916,0 28.371,-3.617 47.4,1.013c3.152,5.36 3.152,20.985 0,26.345c-12.615,6.86 -10.213,-0.314 -23.082,6.08c-11.632,5.776 -24.531,28.402 -33.438,39.517c-27.966,34.908 -57.766,69.531 -83.514,103.152l82.824,102.348c8.906,11.116 21.805,33.742 33.438,39.518c12.868,6.394 12.716,-0.78 25.332,6.079Z" style="fill:#414042;fill-rule:nonzero;"/></svg>