<?xml version="1.0" encoding="UTF-8" standalone="no"?><!DOCTYPE svg PUBLIC "-//W3C//DTD SVG 1.1//EN" "http://www.w3.org/Graphics/SVG/1.1/DTD/svg11.dtd"><svg width="100%" height="100%" viewBox="0 0 100 83" version="1.1" xmlns="http://www.w3.org/2000/svg" xmlns:xlink="http://www.w3.org/1999/xlink" xml:space="preserve" xmlns:serif="http://www.serif.com/" style="fill-rule:evenodd;clip-rule:evenodd;stroke-linejoin:round;stroke-miterlimit:1.41421;"><path d="M53.288,1.205l0,33c8.731,0 20.77,2.137 29,-0.995c12.567,-4.781 16.544,-22.217 3.985,-29.638c-10.011,-5.916 -22.14,-2.591 -32.985,-2.367Zm6,32c4.477,0 9.682,0.708 13.999,-0.653c9.742,-3.07 12.795,-19.168 4.787,-25.694c-4.002,-3.262 -14.673,-4.716 -17.758,0.495c-3.541,5.98 -1.028,19.013 -1.028,25.852Z" style="fill:#139cec;"/><path d="M46.288,34.205l0,-33c-10.637,-0.22 -23.187,-3.677 -32.985,2.228c-12.549,7.561 -8.998,25.114 3.985,29.802c8.362,3.019 20.179,0.97 29,0.97Zm-6,-1c0,-6.979 2.451,-19.721 -1.179,-25.852c-3.028,-5.114 -13.688,-3.855 -17.687,-0.634c-7.933,6.388 -5.094,23.281 4.87,25.928c4.407,1.171 9.472,0.558 13.996,0.558Z" style="fill:#139cec;"/><path d="M46.288,81.205l0,-40c-11.681,0 -26.732,-2.676 -36.999,3.969c-13.055,8.449 -11.163,28.185 2.999,34.502c10.626,4.739 22.831,1.529 34,1.529Zm-6,-38c-5.746,0 -12.458,-0.936 -18,0.804c-12.364,3.883 -13.555,23.965 -3.815,31.342c4.617,3.496 16.012,4.968 19.877,-0.424c5.043,-7.037 1.938,-23.404 1.938,-31.722Z" style="fill:#139cec;stroke:#139cec;stroke-width:1px;"/><path d="M53.288,41.205l0,40c10.779,0 22.635,3.037 33,-1.144c14.641,-5.907 17.311,-26.271 3.999,-34.887c-10.267,-6.645 -25.318,-3.969 -36.999,-3.969Zm6,2c0,8.288 -2.945,23.566 1.179,30.891c3.256,5.784 13.868,5.128 18.806,2.1c11.43,-7.012 10.995,-28.608 -2.985,-32.282c-5.384,-1.415 -11.478,-0.709 -17,-0.709Z" style="fill:#139cec;stroke:#139cec;stroke-width:1px;"/></svg>