<svg viewBox="0 0 575 575" xmlns="http://www.w3.org/2000/svg" xmlns:serif="http://www.serif.com/" fill-rule="evenodd" clip-rule="evenodd" stroke-linecap="round" stroke-linejoin="round" stroke-miterlimit="1.5"><path d="M329.628 277.57s-19.317 33.433-12.735 41.99c6.583 8.558 38.107 6.2 51.932 27.447 11.322 17.402 8.682 37.651 6.752 43.727-3.654 11.499-31.408 24.993-16.103 45.146 32.734 43.103 86.145-14.772 68.581-47.498 7.103 2.35 12.855 6.898 15.1 19.558 1.211 6.829 1.06 16.24-7.91 26.848 10.393-7.474 18.039-27.715 16.467-42.308 3.086 2.674 5.73 17.486.946 33.1-8.137 26.56-22.181 44.324-43.497 56.242-13.336 7.455-34.934 7.694-55.765.338-32.229-11.383-45.988-31.804-46.574-47.032-1.218-31.628-58.376-55.855-58.376-55.855l-20.728-50.642s.453-65.808 18.784-70.147c51.052-12.085 83.126 19.086 83.126 19.086z" fill="#003252" stroke="#435079" stroke-width="5.00094"/><path d="M414.818 198.539L307.645 391.62l30.439 26.501L446.689 227.32l-31.871-28.781z" fill="#999" stroke="#686868" stroke-width="5.00094"/><path d="M317.343 429.44l47.13-101.187-21.055-4.292-40.464 92.343 14.389 13.136z" fill="#ccc" stroke="#686868" stroke-width="5.67" transform="matrix(.8776 .08788 -.08788 .8776 80.035 -15.982)"/><path d="M317.747 353.044c10.21.157 33.793 7.7 32.454 38.832-.486 11.29 6.641 7.218 5.982 11.007-1.512 8.696-20.917 9.85-20.917 9.85L292.26 393.93s11.169-34.783 19.066-47.045c2.168-3.367-2.544 6.02 6.422 6.158z" fill="#003252" stroke="#435079" stroke-width="5.00094" serif:id="tongue"/><path d="M308.434 338.214c.495 5.46 1.33 11.397 3.179 16.572l-4.6 30.282-17.79-1.257 19.21-45.597zM350.426 401.364c3.397 1.775 5.715 3.33 9.239 4.068l-9.403 15.19-13.237-2.788 13.4-16.47z" fill="#003252"/><g serif:id="body+horn"><path d="M342.967 294.93c-2.756 5.13-10.206 11.782-21.025 19.523 12.083 2.653 24.118 2.354 36.092-1.77.363 6.193-3.428 12.17-8.002 18.103 16.496-.09 32.662-3.097 48.209-11.564-1.689 6.926-6.765 13.247-13.17 19.328 19.94-4.6 39.778-13.112 59.504-26.053-2.868 7.53-7.188 14.53-13.443 20.828 10.147 1.419 19.67-1.098 28.571-7.552-.992 8.107-5.02 16.393-11.048 24.797 11.688-2.548 22.974-6.785 33.628-13.679.185 6.504-2.443 12.843-6.15 19.12 8.183-1.174 15.998-5.564 23.368-13.835.945 5.688-.588 10.564-3.61 14.95 10.444-.349 19.4-3.318 27.562-7.684.405 5.102-.637 10.11-2.671 15.057 10.817.017 13.705-2.782 21.578-7.59.504 14.481-2.541 20.04-13.073 30.767l28.087-10.72 12.093-9.426-3.205-13.512 4.715-5.55c-18.165 1.983-14.233-11.846-6.118-20.965l-13.355-1.397-66.319-55.326-18.853-28.995-59.25-65.023s-10.676-17.052-16.08-19.77c-4.306-2.166-13.625-4.84-13.625-4.84s-2.49-14.186-6.193-15.893c-3.47-1.598-12.438-1.138-12.438-1.138s-4.463-13.947-8.085-15.403c-3.658-1.472-12.476-1.2-12.476-1.2s-5.154-11.654-8.62-14.552c-3.343-2.797-13.55-.138-13.55-.138s-9.582-14.135-13.283-15.434c-3.429-1.202-10.876 2.726-10.876 2.726s-9.957-7.661-14.351-8.446c-4.394-.784-12.014 3.738-12.014 3.738s-8.554-8.273-12.265-9.373c-3.791-1.123-9.775.578-9.775.578-9.615 1.402-27.317-12.163-30.682-16.402-8.386-10.561-23.511-18.626-28.065-20.374-7.713-2.962-17.855-3.408-27.085-4.125-3.916-.305-33.223-1.007-41.885 4.365 32.39 2.94 39.95 12.888 44.264 13.6 13.107 2.159 22.89 8.353 30.919 23.928 3.733 7.244 16.904 21.562 35.052 26.26 0 0 11.824 7.753 14.553 8.653 3.99 1.316 9.381-.758 9.381-.758s8.812 7.27 11.508 7.825c3.304.678 8.31-3.751 8.31-3.751s7.106 11.545 10.284 13.312c3.18 1.766 8.789-2.716 8.789-2.716s1.429 12.226 3.664 15.047c2.235 2.822 9.744 1.883 9.744 1.883s1.444 11.197 2.774 11.906c3.39 1.806 9.643 1.23 9.643 1.23L133.28 143.313c-25.596.546-106.31 30.188-139.524 90.438l17.08-6.663c-16.978 17.542-67.457 79.84-68.338 198.199l14.48-14.97c-11.832 52.775 14.318 152.111 28.327 159.324l7.905-3.434s18.17 27.52 32.116 33.673l470.34 10.433s-.912-21.507-11.004-34.567c-31.115-40.267-120.273-33.848-171.868-41.12-101.76-14.342-172.981-65.809-173.763-156.786-.216-25.178 25.993-90.135 62.598-86.89 19.3 1.71 56.276-26.237 101.145-36.432 3.498-.795 8.82 8.748 8.82 8.748l2.46 7.757c5.825 2.713 11.732 3.82 17.716 3.446-3.65 7.289-9.124 14.377-16.006 21.31 9.109 2.781 18.17 1.934 27.203-.85z" fill="#f12727" stroke="#980000" stroke-width="5.00094"/><path d="M559.594 335.852c-7.158-1.407-14.556-.188-11.153 9.467 1.244 3.529 5.31 9.572 5.31 9.572 1.715-7.769 6.357-8.046 11.405-.502l1.146-4.695c-11.577-3.933-8.269-10.734-6.708-13.842zM543.115 380.655c7.158-5.743 7.643-14.307 9.411-15.085 2.94-1.295 8.176 3.092 12.263 3.035l-8.238 6.285-13.436 5.765z" fill="#980000"/><path d="M536.327 348.086c-5.497-1.265-10.308-3.962-14.713-7.505 2.613 2.102 1.6 6.624-2.37 10.154l5.65 6.539c3.131-5.93 7.808-8.619 11.433-9.188zM501.654 348.138c3.126-4.542 4.603-11.219 13.32-9.357-14.137-3.02-23.26-12.23-33.397-16.43 3.658 7.13.176 11.043-1.914 14.842l4.611 4.91c1.687-2.642 2.721-6.345 4.865-7.343 5.99-2.787 12.887 2.164 7.139 7.37l5.376 6.008zM477.216 320.7c-12.246-4.74-25.035-7.578-29.808-10.112-6.821-1.808-12.206-8.045-18.106-11.898 2.381 3.07 3.569 4.367 3.2 6.227-.125.638-4.006-1.536-5.933.193 0 0 5.072 1.046 3.351 5.44-.85 2.172-13.027 15.216-19.67 18.565 5.463-2.23 30.804-14.617 32.703-8.343 14.45-11.8 19.14 1.074 12.992 5.166 4.253 1.874 3.084 7.396.68 14.67 7.652-3.792 10.917-21.479 20.59-19.908zM397.636 326.857c10.692-5.5 11.545-24.327 22.142-22.384-5.105-4.82-28.82 2.276-33.838-3.461 5.992 6.848 1.228 18.306-24.298 27.62l35.994-1.775zM354.304 327.732c12.35-3.233 10.672-27.577 25.774-27.128-13.988-.416-17.947-3.883-19.508-8.308 1.425 6.09-2.298 12.298-20.627 22.28 4.252-1.262 9.12.107 12.007.474 8.203 1.039 9.148 5.98 2.354 12.682zM360.2 291.786c-2.79-12.391-24.335-8.307-27.492-36.897l-7.738 5.239c-6.635.458-18.003 12.64-.156 12.982 6.618 2.051 3.905 7.532 2.143 11.25 12.552-11.593 14.75-.275 7.609 10.485 11.08-2.601-4.346 15.728-9.684 17.513 17.45 3.724 23.767-31.9 35.317-20.572z" fill="#980000" serif:id="shadowTooth"/><path d="M129.908 147.555c33.166-30.4 170.822-18.919 196.657 21.493-62.884-13.11-160.917-16.042-189.61-13.634 0 0-.206-6.41-7.047-7.859z" fill="#980000"/><path d="M-2.352 228.743c13.886-12.765 30.358-21.635 43.707-28.501-12.861 10.468-24.963 21.478-30.553 31.083l-13.154-2.582z" fill="#980000" serif:id="shadowBack"/><path d="M473.842 254.606s5.524 18.447 7.865 21.275c2.34 2.828 14.79 5.403 14.79 5.403l-9.944-10.606-12.71-16.072zM542.794 320.309s.748 6.041 2.205 6.784c1.456.742 7.896 1.413 7.896 1.413l-10.101-8.197zM314.619 157.5s7.488 17.76 10.483 18.984c7.126 2.915 27.014 16.412 38.669 15.199 11.655-1.215 26.28-4.189 26.157-7.345-.125-3.155-26.976 3.195-16.104-14.764 7.864-12.99-14.656-5.396-14.656-5.396-32.616 5.829-5.094-9.409-5.207-17.887-.051-3.82-17.174.448-17.174.448-34.739 4.63-.007-8.512-3.349-16.99-1.447-3.67-12.442.26-12.442.26-27.507 7.65-7.11-3.666-8.79-17.397-.655-5.35-8.776 2.506-13.968 3.9-11.412 3.064-7.79-5.144-3.314-14.425 3.141-6.512-12.098 1.633-15.835 2.76-7.604 2.291-5.076-1.28-7.296-13.622-1.323-7.358-16.717 1.838-19.763 3.101-11.352 4.71-2.95-3.344-4.923-9.015-1.981-5.696-15.663-2.076-21.104-1.391-4.903.616-12.179-1.934-16.231-4.17-8.035-4.438-10.194-15.728-12.405-18.513-8.386-10.561-14.159-13.192-18.615-15.174-8.122-3.61-16.87-7.525-26.1-8.242-3.917-.305-25.143.732-36.854 3.166 32.391 2.941 39.886 12.982 44.2 13.693 13.107 2.16 22.89 8.354 30.919 23.929 3.733 7.244 16.904 21.562 35.052 26.26 0 0 8.742 5.887 14.553 8.653 3.793 1.806 9.381-.758 9.381-.758s8.812 7.27 11.508 7.825c3.304.678 8.31-3.751 8.31-3.751s7.497 10.976 10.284 13.312c2.54 2.127 8.216-2.392 8.789-2.716 0 0 1.429 12.226 3.664 15.047 2.235 2.822 9.744 1.883 9.744 1.883s1.444 11.197 2.774 11.906c3.39 1.806 9.643 1.23 9.643 1.23z" fill="#980000"/></g><path d="M140.928 481.88s15.317 3.09 14.104 11.335c-.26 1.765 8.336 11.508 8.336 11.508-5.261 6.255-19.48 3.019-21.003 4.795-1.341 1.566-7.785 4.469-9.277 5.944-5.167 5.114-21.733-5.916-21.733-5.916s8.442-1.115 15.823-2.831c5.04-1.172 13.75-24.835 13.75-24.835zM181.468 522.534s4.401 19.811.716 22.725c-14.655 11.585-63.742 20.323-63.742 20.323s67.46 5.024 71.36.854c3.903-4.17 3.34-19.448 3.34-19.448 8.24-.56 16.99-6.99 22.948-9.67l-34.622-14.784zM241.338 545.379c.758 2.295-18.213-6.008-18.213-6.008 1.44 4.515 20.102 14.436 21.227 16.597 2.184 4.195 1.576 8.87 1.325 12.597 5.26-1.31 20.67 2.581 20.67 2.581 7.28.739 40.77 4.582 59.818 1.687 10.688-1.624 31.59-10.48 35.62-11.668 0 0-85.982-11.093-92.078-12.312l-28.369-3.474z" fill="#980000"/><path d="M-35.43 371.945c-4.873 62.543 6.813 91.13 16.166 91.11 13.193-.029-2.964 37.659 17.045 53.287C15.395 530.1 41.83 526.51 41.83 526.51c.832 9.668.163 20.057-7.078 28.64-7.176 8.504 7.824 25.679 27.137 24.792 9.003-.413 21.306-4.684 21.306-4.684s19.492 18.33 32.64 22.125c12.04 3.475 68.375-10.136 68.375-10.136l28.081 14.607c0 2.794-186.171-1.853-186.171-1.853-16.624-10.24-24.818-21.285-32.067-32.42 0 0-4.172 1.06-10.762 1.416-25.358-41.294-35.675-115.782-26.957-159.148.293-1.46-10.973 12.493-10.973 12.493-1.06-1.038 10.883-41.931 19.21-50.397zM176.66 178.964l11.113 47.742-87.86 156.25c-1.29.493 4.51 37.237 1.378 45.27-.653 1.672-25.128-3.91-26.247-6.158-1.125-2.26 13.666-12.75 13.666-12.75s-1.71-23.58-21.694-30.026c-8.19-2.642-20.357-12.085-20.357-12.085s23.513 3.013 21.837-6.422c-3.219-18.117-24.576-57.713-24.576-57.713s18.42 9.916 28.672 5.928c17.214-6.695 1.95-67.017 1.95-67.017 7.298 7.592 13.851 15.953 29.6 14.837 7.406-9.59 7.912-24.573 9.255-38.9 0 0-.792 13.123 15.07 14.364 12.43.972 19.427-37.515 24.636-40.467 13.81-7.823 23.557-12.853 23.557-12.853z" fill="#980000"/><path d="M491.863 608.59l30.568-.903c-5.108-16.965-20.36-27.622-36.007-33.807-25.069-9.91-20.386 8.11-17.112 12.835 8.06 11.631 25.226 13.492 22.55 21.875z" fill="#ff7d25" stroke="#980000" stroke-width="5.00094"/><path d="M469.75 585.96s20.4 16.342 25.118 16.735c4.718.392 6.176-16.372 5.958-19.425-.219-3.054-10.531-5.45-10.531-5.45l-20.546 8.14z" fill="#a34404"/><path d="M469.384 590.76c14.804 13.13 29.704-16.719 26.099-19.66-54.979-44.872-97.183-31.997-133.47-35.174-10.111-.885-32.511 12.627-26.773 18.218 23.247 22.647 93.38.458 134.144 36.615z" fill="#ff7d25" stroke="#980000" stroke-width="5.00094"/><path d="M350.243 555.822s19.768 10.291 25.12 8.333c5.353-1.957 9.858-21.984 8.3-25.954-1.56-3.97-13.926-1.749-13.926-1.749l-19.494 19.37z" fill="#a34404"/><path d="M358.305 564.04c8.143.35 28.844-30.659 18.05-31.841-53.615-5.873-83.187 2.947-120.009-21.014-8.507-5.537-43.487 21.173-36.784 25.56 27.155 17.775 92.42 25.295 138.743 27.295z" fill="#ff7d25" stroke="#980000" stroke-width="5.00094"/><path d="M212.414 531.518c-.246 8.931 81.863 31.166 89.996 22.058 3.952-4.424-22.243-8.644-35.049-16.855-4.143-2.656-2.022-12.2-3.232-13.67-3.141-3.822-28.078-10.866-28.078-10.866l-23.637 19.333z" fill="#a34404"/><path d="M115.446 437.061c-.275 37.413 92.746 122.496 113.13 98.641 11.476-13.429 41.565-25.084 35.539-25.334-72.051-3-106.938-63.102-115.09-83.106-2.952-7.245-33.58 9.8-33.58 9.8z" fill="#ff7d25" stroke="#980000" stroke-width="5.00094"/><path d="M145.946 419.698s2.737 8.007 4.385 17.033c.42 2.302-2.926 4.079-2.295 6.172.566 1.876-.865 7.726-.223 10.087 1.984 7.294-11.018 15.832-17.2 13.709-6.171-2.119-16.144-31.257-15.744-32.107l31.077-14.894z" fill="#a34404"/><path d="M142.197 528.414c11.555 14.753 29.243-13.911 49.455-23.675 4.668-2.255-17.857-22.517-19.371-57.143-1.946-44.483 11.854-74.604 46.048-89.292 0 0-75.097 3.792-84.266 15.355-9.169 11.562-42.363 90.279 8.134 154.755z" fill="#ff7d25" stroke="#980000" stroke-width="5.67" transform="matrix(.8776 .08788 -.08788 .8776 30.825 -32.6)"/><path d="M116.98 306.592s-6.882 8.998-9.247 16.567c-2.633 8.433-13.884 31.166-11.998 43.726 1.097 7.307 39.247-5.594 45.316-14.496 3.965-5.815 7.506-24.353 37.392-51.358l-61.463 5.561z" fill="#a34404" serif:id="shadowNeck"/><path d="M196.425 247.103c-85.426 29.455-108.031 123.653-100.55 126.024 32.317 10.24 36.358-19.1 76.245-12.303 17.019 2.9 6.719-3.717 30.666-4.341 21.132-.551-6.361-109.38-6.361-109.38z" fill="#ff7d25" stroke="#980000" stroke-width="5.67" transform="matrix(.8776 .08788 -.08788 .8776 54.571 -25.828)"/><path d="M130.675 307.17c-5.685-23.06 20.435-57.06 43.119-67.087 30.802-13.614 46.776-16.998 52.767 1.688 0 0-30.25 69.812-46.51 64.122-37.683-13.186-47.203 10.09-49.376 1.277z" fill="#a34404" serif:id="shadowNeck"/><g><path d="M296.162 435.518l-58.309 136.157s6.959 9.379 12.284 11.414c3.994 1.526 19.185 6.093 25.448 1.188l61.829-133.117-41.252-15.642z" fill="#999" stroke="#666" stroke-width="5.67" transform="matrix(.876 .10267 -.10267 .876 72.73 5.13)"/><path d="M316.264 432.943l-21.056 2.3-57.355 136.432s5.667 8.055 6.966 7.765c1.543-.344 4.604 2.909 6.722 3.619l64.723-150.116z" fill="#fff" stroke="#666" stroke-width="5.67" transform="matrix(.876 .10267 -.10267 .876 72.73 5.13)"/></g><g><path d="M224.217 539.152c3.857 6.309 31.802 12.73 35.02 13.061 2.346.242 11.29 1.893 11.29 1.893 1.759-.806 1.913-4.3 1.913-4.3l40.785-28.88-36.505 14.436 34.51-32.208-43.338 24.055s-8.367 14.415-10.113 15.899c-3.019-.38-9.045 1.3-22.755-4.483-5.483-2.312-13.094-11.079-13.094-11.079l9.43-17.334c.806-.857-8.932-42.702-8.932-42.702l-1.157 39.502-18.673-42.534s8.073 34.798 11.407 55.595c-4.856-.117-6.253-3.853-4.095 7.552.833 4.4 9.724 4.032 14.307 11.527z" fill="#980000"/></g><g><path d="M396.635 194.564l45.54-87.672 37.412 31.661-44.423 85.78-38.529-29.769z" fill="#999" stroke="#666" stroke-width="5.67" transform="matrix(.8794 .06755 -.06755 .8794 69.55 7.3)"/><path d="M454.65 129.659l-38.56 79.176-19.42-14.328 41.059-82.58 16.921 17.732z" fill="#f4f4f4" stroke="#666" stroke-width="5.67" transform="matrix(.8794 .06755 -.06755 .8794 69.55 7.3)"/></g><g><path d="M532.119 34.38c-1.284-.766-2.915-5.785-2.915-5.785l2.412-3.506s-3.332-14.742-2.69-15.895c1.888-3.39 18.66-6.997 22.14-5.073 2.7 1.493 7.262 22.792 4.176 24.941-1.394.972-11.515 3.028-11.515 3.028l-2.357 4.03s-6.569-.135-9.251-1.74z" fill="#999" stroke="#666" stroke-width="5.00094"/><path d="M535.058 11.635c2.12-1.851 9.934-2.756 11.354-1.735 1.421 1.021.297 5.542-1.376 7.453-1.808 2.067-2.626 3.39-5.751 1.053-2.048-1.531-5.258-5.87-4.227-6.771z" fill="#e6e6e6"/><path d="M481.942 161.543l-30.762-30.371 22.57-32.164 54.24-71.472c4.21 4.295 7.778 7.754 14.41 9.476l-39.603 85.335-20.855 39.196z" fill="#435079" stroke="#003252" stroke-width="5.00094"/><path d="M474.698 146.246l8.175 9.3c17.95-31.987 40.182-75.198 58.533-116.98l-2.87-2.222c-18.813 36.083-48.571 89.035-63.838 109.902z" fill="#003252"/><path d="M462.009 127.645l10.972-17.055 4.69-6.306 4.836-7.592 5.473-6.842 4.296-7.335 3.598-3.845 4.776-7.641 3.078-3.371 3.904-5.906 2.958-2.823 2.255-4.103 2.585-3.435 3.36-4.463 10.841-14.406-12.2 21.438-3.82 4.576-2.968 5.545-4.048 3.674-4.963 7.06-4.007 6.237-4.237 7.09-4.825 5.206-3.004 6.74-3.739 2.346-3.504 5.425-2.742 4.323-13.565 15.463z" fill="#beceff"/><path d="M378.2 143.729c15.54.825 36.999 14.598 48.369 38.219 26.865 3.942 47.105 21.351 53.6 35.979l-.524 6.883c8.054-3.078 10.001-6.03 13.197-10.309-11.459-10.935-34.722-31.192-34.722-31.192l-40.909-31.162s-25.295-14.879-39.669-22.459c-3.846 5.639-5.104 9.693-5.307 17.824l5.965-3.783z" fill="#f4f4f4" stroke="#666" stroke-width="5.67" transform="matrix(.88125 .03624 -.03624 .88125 89.505 -21.78)"/></g><g><path d="M341.059 188.322c-29.407-30.634-72.547-64.5-96.831-66.23 10.428 6.281 16.46 13.532 17.992 21.776-82.499-30.18-110.501-28.822-160.197 2.701 34.311-8.048 70.162 8.504 68.177 12.33-5.258 10.14-49.946 11.685-85.4 59.483 42.948-27.374 98.85-28.228 89.917-18.993-6.724 6.95-16.859 6.21-20.113 50.386 29.414-17.17 47.017-29.93 58.264-8.332l-15.009 23.117 143.2-76.238z" fill="#f12727" stroke="#980000" stroke-width="5.00094"/><path d="M305.88 167.738l48.606 29.687-20.916 27.632-94.413 36.405-4.93-36.162 71.653-57.562z" fill="#f12727"/><path d="M331.163 209.435c-16.747-23.89-45.249-52.661-62.027-55.46 2.492 4.018 12.645 14.78 9.219 18.705-34.372-24.009-75.496-23.463-102.007-22.849 17.924 4.186 34.672 8.716 46.508 22.983-33.494-1.983-50.945 5.582-67.308 16.027 23.229-2.715 47.204 1.034 68.695 9.635-18.672 3.178-30.591 8.84-37.776 26.528 14.39-6.404 26.948-10.382 41.091-5.511-18.306 4.467-16.74 13.106-15.795 25.82l53.415-11.75 65.985-24.128z" fill="#980000"/></g><g><path d="M275.035 274.756c-6.571 5.69-10.981 12.689-12.784 21.267-21.662 8.083-28.671 56.619-39.235 57.702 6.074 9.183 38.62-8.042 48.536-5.176-4.686 6.289-25.312 29.735-33.52 28.873 5.747 6.372 29.586-5.622 47.334-5.847-4.655 9.742-15.472 27.029-22.512 25.896 28.533 12.058 47.474-8.488 64.068-9.403-4.627 7.866-10.687 17.652-21.603 30.632 26.406.099 42.553-14.915 56.962-24.178-1.136 15.5-7.03 25.807-24.079 37.004 16.363-1.189 23.494-10.38 37.955-15.428-.991 8.001-2.408 22.833-18.868 32.244 11.524 1.75 27.794-9.984 34.538-12.295.453 9.375-2.257 15.397-17.009 27.108 6.592 3.258 20.308-4.963 26.887-7.505-1.198 7.906-6.559 14.898-18.682 23.626 8.356 1.203 24.626-4.61 31.623-7.218 1.102 8.658-10.09 18.573-14.78 24.897 11.069 1.397 23.452-11.215 35.801-25.734-.547 19.258-3.546 40.474-22.486 48.934 1.384 1.861 3.946 8.708 2.319 10.701-5.67 6.943-20.228 11.112-20.228 11.112l-28.759-12.954-1.263-12.972c1.077-9.622-7.116-1.575-15.855-1.134l-1.577-12.311-81.019-47.333c-10.286 4.177-33.318-6.92-45.386-12.285l2.429-10.706c-14.488 1.6-22.132 2.565-34.304-1.207l3.756-15.585-24.446-.009c-5.218-11.057-19.838-28.828-24.262-40.72-4.859-13.065-7.592-39.312-.592-49.549l-3.644-3.941c2.255-13.076 8.015-28.101 18.91-33.629l-13.58-9.199c8.331-10.327 26.531-18.059 41.787-23.237l-14.364-8.079c11.665-4.632 34.134-12.106 49.3-12.219l-3.709-13.152c16.903.26 28.293-1.109 42.29 6.021l7.662-18.081c10.45 4.932 22.196 12.858 34.439 21.932l9.243-8.779 14.032 16.521-51.325 35.395z" fill="#f12727" stroke="#980000" stroke-width="5.67" transform="matrix(.76383 .441 -.441 .76383 243.318 -74.534)"/><path d="M282.727 451.375s7.74 3.516 8.64 5.282c.9 1.767-2.659 8.476-2.659 8.476l-5.98-13.758z" fill="#980000"/><path d="M257.811 302.716c3.978 9.213 15.068 11.253 22.801 13.78-6.162 1.69-10.603 3.035-18.553.972-.407 3.156 4.818 8.513 4.818 8.513-7.54 7.295-4.031 21.807 14.503 15.625l-13.355 4.204 21.944 13.775c-2.01.743-9.59-.164-15.075-1.951-1.165-.38-.867 2.552 1.01 4.944-4.346-2.634-7.296-6.445-7.848-6.692-3.895-1.744-3.68-3.451-4.338-5.007-6.363-15.035-9.554-23.563-9.166-33.83.38-10.076 3.259-14.333 3.259-14.333zM271.914 363.44c6.45 4.203 19.439 11.735 26.678 12.08l-4.099 4.76 6.185 4.24c5.641 10.371 13.1 18.068 29.112 13.395l-19.13 7.422c-7.978-4.31-6.793 2.598-9.43.585-3.367-2.57-3.665-16.046-7.81-21.05-5.843-7.057-17.337-10.866-21.506-21.433zM300.316 408.007c13.056 14.298 28.386 12.81 37.065 8.991-2.732 6.923-16.295 7.82-21.61 9.105-13.18 3.189 8.499 17.18 21.426 13.19l-12.172 8.866c-6.138 2.084-5.214 11.454 7.208 11.317-12.862 5.384-17.983 17.807 4.228 20.213-4.335.575 1.346 5.543 1.346 5.543-8.892-1.24-16.05 30.001 19.412 7.244-3.95 5.856-17.06 11.402-24.303 11.417-5.83.013-11.79-17.171-14.2-38.603-3.822-34.014-17.004-44.077-18.4-57.283z" fill="#980000" serif:id="shadowTooth"/><path d="M266.339 285.73c-2.151-10.074 4.443-2.996 12.364-14.68 12.836-18.936 36.476-23.415 36.476-23.415-9.966 7.547-11.305 15.297-3.045 17.758-10.284 4.894-24.74 13.385-38.604 23.735.564-.422-2.314-9.096-7.191-3.398zM287.17 466.555s4.813 2.96 9.287 5.508c3.286 1.871 1.119 5.859 1.119 5.859l-12.567-5.168 2.16-6.199zM294.024 485.132s9.155 19.26 14.794 22.814c5.077 3.201 10.66 6.276 10.66 6.276l-12.46-.171-15.586-22.138 2.592-6.78z" fill="#980000"/><path d="M199.235 335.947c11.554 5.958 17.623 7.607 20.86 9.372 3.493 1.904 5.29 9.32 5.29 9.32s-19.92-8.886-26.15-18.692zM229.113 374.542c9.987 7.885 15.11 4.305 18.402 6.87 2.769 2.157-1.19 4.72 1.466 8.514-10.094-3.02-16.904-9.313-19.868-15.384zM245.218 390.139c5.672 3.215 11.455 10.113 16.685 11.753 4.911 8.51 5.88 24.328 7.99 34.599-3.947-19.212-15.416-35.927-24.675-46.352z" fill="#980000" serif:id="jawShadow"/><path d="M191.276 317.852c2.089-5.61 4.446-15.185 1.76-21.044-3.577-7.793-3.252-13.096-3.773-19.008-1.997 9.577-.884 28.449 2.013 40.052z" fill="#980000"/><path d="M191.25 317.107s11.093-.5 13.364.772c2.235 1.25 4.467 8.988 4.467 8.988l-17.83-9.76z" fill="#980000" serif:id="jawShadow (Curve)"/><path d="M360.466 239.51l24.15 9.744 3.476 7.005-49.343 4.498c-4.278-7.189-6.639-8.42-21.456-12.325l43.173-8.922z" fill="#f12727" serif:id="mask"/></g><g><path d="M394.75 230.415c9.272 19.108 18.015 29.132 22.35 40.525 1.05 2.761.87 5.068.24 9.85-.358 2.73 4.474 11.157 4.474 11.157-.346-1.176-6.383-3.98-6.763-5.076-11.51-33.202-37.705-31.229-34.27-55.395.458-3.222-1.47-9.173-2.279-12.807-.42-1.895.971-7.343.971-7.343s1.205 5.325 2.896 6.822c3.604 3.191 10.468 8.326 12.38 12.267z" fill="#980000"/><path d="M429.163 288.42s-.696-6.43-.01-7.956c3.769-8.372-3.275-14.904-3.275-14.904s1.5 13.124-1.127 16.42c-1.042 1.308 4.412 6.44 4.412 6.44zM401.097 220.008c.683 5.174 16.135 10.592 22.708 36.188.218.851 2.784 3.707 3.934 1.11.538-1.214 9.053 5.64 15.589 13.745-3.816-9.89-10.705-19.4-16.201-24-4.333-3.625-10.2-18.977-14.202-22.189-2.208-1.772-12.385-9.078-11.828-4.854zM448.505 284.816c.006-1.501-11.568-14.596-9.002-4.603.085.333.567 7.727 1.233 8.614.463.617 13.587 4.94 13.783 4.79.345-.262-6.028-5.186-6.014-8.801z" fill="#980000" serif:id="shadow"/><path d="M374.907 235.418l8.865 5.564s4.845 4.895 13.858 9.868c3.99 2.202 10.64 8.269 11.467 14.95-18.109-13.636-24.324-11.769-28.501-12.624-6.524-1.336-5.689-17.758-5.689-17.758z" fill="#ff7d25" stroke="#980000" stroke-width="4.83" transform="matrix(.94765 .4172 -.4172 .94765 135.43 -148.166)"/></g><g><path d="M407.338 198.738c7.878 14.226 32.25 32.55 34.79 31.13l3.35-6.37c20.29-3.935 57.184-11.41 57.184-11.41l-45.498 18.728 40.255-4.462s-32.97 9.697-44.839 16.042c0 0 1.712 3.38 2.98 6.015.785 1.628 3.366 2.617 2.42 3.004-6.423 2.626-10.821-5.235-10.821-5.235-19.928-6.72-48.202-37.633-50.66-40.25 0 0-8.688-5.18-10.195-8.309-.981-2.04-1.471-8.387 1.704-7.311 2.625.89 5.524 6.187 5.253 5.739 1.993-16.388 4.562-48.237 4.562-48.237l4.659 37.27 7.086-47.48 2.247 51.822s-4.238 9.178-4.477 9.314z" fill="#980000"/></g></svg>