<?xml version="1.0" encoding="UTF-8" standalone="no"?><!DOCTYPE svg PUBLIC "-//W3C//DTD SVG 1.1//EN" "http://www.w3.org/Graphics/SVG/1.1/DTD/svg11.dtd"><svg width="100%" height="100%" viewBox="0 0 105 105" version="1.1" xmlns="http://www.w3.org/2000/svg" xmlns:xlink="http://www.w3.org/1999/xlink" xml:space="preserve" xmlns:serif="http://www.serif.com/" style="fill-rule:evenodd;clip-rule:evenodd;stroke-linejoin:round;stroke-miterlimit:1.41421;"><circle cx="52.5" cy="52.5" r="52.5" style="fill:#fff;"/><path d="M49.5,48l0,-24.75c-7.978,-0.165 -17.39,-2.758 -24.739,1.671c-9.411,5.671 -6.748,18.836 2.989,22.352c6.272,2.264 15.134,0.727 21.75,0.727m5.25,-24.75l0,24.75c6.548,0 15.578,1.603 21.75,-0.746c9.425,-3.586 12.408,-16.663 2.989,-22.229c-7.508,-4.437 -16.605,-1.943 -24.739,-1.775Z" style="fill:#139cec;fill-rule:nonzero;"/><path d="M45,47.25c0,-5.234 1.838,-14.791 -0.884,-19.389c-2.271,-3.835 -10.266,-2.891 -13.265,-0.475c-5.95,4.791 -3.821,17.46 3.652,19.446c3.305,0.878 7.104,0.418 10.497,0.418m14.25,0c3.358,0 7.262,0.531 10.499,-0.49c7.307,-2.302 9.597,-14.376 3.591,-19.27c-3.002,-2.447 -11.005,-3.537 -13.319,0.371c-2.656,4.485 -0.771,14.26 -0.771,19.389Z" style="fill:#fff;fill-rule:nonzero;"/><path d="M49.5,83.25l0,-30c-8.761,0 -20.049,-2.007 -27.749,2.977c-9.791,6.337 -8.372,21.139 2.249,25.876c7.97,3.555 17.123,1.147 25.5,1.147m5.25,-30l0,30c8.084,0 16.976,2.278 24.75,-0.858c10.981,-4.43 12.983,-19.703 2.999,-26.165c-7.7,-4.984 -18.988,-2.977 -27.749,-2.977Z" style="fill:#139cec;fill-rule:nonzero;stroke:#139cec;stroke-width:0.75px;"/><path d="M45,54.75c-4.309,0 -9.343,-0.702 -13.5,0.603c-9.273,2.912 -10.166,17.974 -2.861,23.506c3.463,2.623 12.009,3.726 14.908,-0.317c3.782,-5.278 1.453,-17.554 1.453,-23.792m14.25,0c0,6.216 -2.209,17.674 0.884,23.168c2.442,4.338 10.401,3.846 14.105,1.575c8.572,-5.259 8.246,-21.456 -2.239,-24.211c-4.038,-1.062 -8.608,-0.532 -12.75,-0.532Z" style="fill:#fff;fill-rule:nonzero;"/></svg>