<?xml version="1.0" standalone="no"?>
<!DOCTYPE svg PUBLIC "-//W3C//DTD SVG 20010904//EN"
 "http://www.w3.org/TR/2001/REC-SVG-20010904/DTD/svg10.dtd">
<svg version="1.0" xmlns="http://www.w3.org/2000/svg"
 width="700.000000pt" height="700.000000pt" viewBox="0 0 700.000000 700.000000"
 preserveAspectRatio="xMidYMid meet">
<metadata>
Created by potrace 1.11, written by Peter Selinger 2001-2013
</metadata>
<g transform="translate(0.000000,700.000000) scale(0.100000,-0.100000)"
fill="#000000" stroke="none">
<path d="M2185 5504 c-372 -41 -643 -184 -801 -421 -131 -197 -157 -486 -66
-713 76 -190 200 -338 377 -447 110 -69 250 -113 440 -139 137 -19 533 -16
938 7 l227 12 0 823 0 822 -87 7 c-49 3 -194 15 -323 26 -224 19 -620 32 -705
23z m572 -224 c178 -67 251 -203 275 -513 12 -150 9 -223 -24 -728 l-12 -186
-181 -6 c-187 -6 -381 3 -475 23 -282 60 -485 340 -506 700 -19 315 114 575
343 670 127 53 226 70 383 66 112 -2 146 -7 197 -26z"/>
<path d="M4395 5504 c-33 -2 -175 -13 -315 -24 -140 -10 -294 -22 -342 -26
l-88 -6 0 -824 0 -824 43 0 c23 0 164 -7 312 -16 525 -30 800 -20 1005 37 539
149 826 746 582 1213 -44 85 -161 210 -252 271 -133 88 -304 152 -485 180 -93
14 -355 25 -460 19z m245 -223 c125 -34 228 -91 299 -166 241 -258 235 -736
-14 -1038 -157 -190 -343 -246 -770 -231 l-201 7 -19 276 c-23 317 -26 703 -6
796 44 213 109 302 256 353 85 30 95 31 245 27 92 -3 159 -11 210 -24z"/>
<path d="M2180 3494 c-19 -2 -73 -9 -120 -15 -549 -67 -905 -330 -1036 -764
-26 -83 -28 -104 -28 -270 -1 -158 2 -190 22 -260 76 -270 217 -465 444 -612
133 -86 336 -154 548 -184 141 -20 506 -16 827 9 150 12 315 22 367 22 73 0
98 4 110 16 14 14 16 119 16 1012 0 609 -4 1003 -10 1012 -7 12 -45 16 -192
21 -257 10 -906 18 -948 13z m653 -141 l167 -6 0 -51 c0 -28 9 -175 21 -326
22 -302 26 -694 9 -822 -57 -417 -229 -571 -620 -554 -361 15 -587 153 -725
441 -72 151 -90 240 -90 445 0 148 4 189 23 264 45 177 144 344 261 441 187
154 393 191 954 168z"/>
<path d="M4070 3490 c-74 -4 -199 -8 -277 -9 -114 -1 -145 -4 -157 -17 -14
-14 -16 -120 -16 -1014 0 -894 2 -1000 16 -1014 12 -12 37 -16 110 -16 52 0
217 -10 367 -22 349 -28 702 -30 861 -4 131 21 285 66 382 110 301 139 527
436 584 766 22 124 16 298 -13 417 -97 389 -376 644 -832 757 -155 38 -267 48
-580 51 -170 1 -371 -1 -445 -5z m500 -141 c257 -23 403 -81 535 -212 111
-111 170 -218 217 -392 18 -66 22 -109 22 -240 1 -101 -4 -180 -12 -215 -67
-276 -197 -475 -386 -588 -177 -107 -489 -143 -687 -80 -198 64 -281 177 -336
453 -26 130 -23 531 5 892 12 149 22 297 22 327 l0 55 148 4 c81 1 194 4 252
5 58 1 157 -3 220 -9z"/>
</g>
</svg>
